<svg 
 xmlns="http://www.w3.org/2000/svg"
 xmlns:xlink="http://www.w3.org/1999/xlink"
 width="522px" height="542px">
<path fill-rule="evenodd"  fill="rgb(255, 255, 255)"
 d="M252.338,0.087 L269.022,0.087 L269.022,23.127 L252.338,23.127 L252.338,0.087 Z"/>
<path fill-rule="evenodd"  fill="rgb(255, 255, 255)"
 d="M31.476,248.358 C31.476,120.895 134.806,17.565 262.269,17.565 C389.732,17.565 493.061,120.895 493.061,248.358 L31.476,248.358 Z"/>
<path fill-rule="evenodd"  fill="rgb(255, 255, 255)"
 d="M0.763,276.903 C12.778,410.335 124.915,514.901 261.474,514.901 C397.344,514.901 509.037,411.389 521.996,278.924 L0.763,276.903 Z"/>
<path fill-rule="evenodd"  fill="rgb(255, 255, 255)"
 d="M253.927,502.190 L270.611,502.190 L270.611,541.913 L253.927,541.913 L253.927,502.190 Z"/>
<path fill-rule="evenodd"  fill="rgb(255, 255, 255)"
 d="M423.950,439.596 L433.545,425.947 L466.042,448.791 L456.448,462.440 L423.950,439.596 Z"/>
<path fill-rule="evenodd"  fill="rgb(255, 255, 255)"
 d="M93.437,439.596 L83.843,425.947 L51.345,448.791 L60.940,462.440 L93.437,439.596 Z"/>
</svg>